<?xml version="1.0" encoding="utf-8"?>
<!-- Generator: Adobe Illustrator 22.1.0, SVG Export Plug-In . SVG Version: 6.00 Build 0)  -->
<svg version="1.1" id="Smarthr_x5F_final_xA0_Image_1_"
	 xmlns="http://www.w3.org/2000/svg" xmlns:xlink="http://www.w3.org/1999/xlink" x="0px" y="0px" viewBox="0 0 630.1 659.6"
	 style="enable-background:new 0 0 630.1 659.6;" xml:space="preserve">
<style type="text/css">
	.st0{fill:none;stroke:#FFFFFF;stroke-width:2;stroke-miterlimit:10;}
	.st1{fill:none;stroke:#1B1464;stroke-width:2;stroke-miterlimit:10;}
	.st2{fill:#FFFFFF;}
	.st3{fill:#1B1464;}
	.st4{fill:url(#SVGID_1_);}
	.st5{fill:url(#SVGID_2_);}
	.st6{fill:#019EA4;}
	.st7{opacity:0.81;fill:url(#SVGID_3_);}
	.st8{opacity:0.81;fill:url(#SVGID_4_);}
	.st9{fill:none;stroke:url(#SVGID_5_);stroke-width:2;stroke-miterlimit:10;}
	.st10{fill:none;stroke:url(#SVGID_6_);stroke-width:2;stroke-miterlimit:10;}
	.st11{fill:none;stroke:url(#SVGID_7_);stroke-width:2;stroke-miterlimit:10;}
	.st12{fill:none;stroke:url(#SVGID_8_);stroke-width:2;stroke-miterlimit:10;}
	.st13{fill:none;stroke:url(#SVGID_9_);stroke-width:2;stroke-miterlimit:10;}
	.st14{fill:none;stroke:url(#SVGID_10_);stroke-width:2;stroke-miterlimit:10;}
	.st15{fill:none;stroke:url(#SVGID_11_);stroke-width:2;stroke-miterlimit:10;}
	.st16{fill:none;stroke:url(#SVGID_12_);stroke-width:2;stroke-miterlimit:10;}
	.st17{fill:none;stroke:url(#SVGID_13_);stroke-width:2;stroke-miterlimit:10;}
	.st18{fill:none;stroke:url(#SVGID_14_);stroke-width:2;stroke-miterlimit:10;}
	.st19{fill:none;stroke:url(#SVGID_15_);stroke-width:2;stroke-miterlimit:10;}
	.st20{fill:none;stroke:url(#SVGID_16_);stroke-width:2;stroke-miterlimit:10;}
	.st21{fill:none;stroke:url(#SVGID_17_);stroke-width:2;stroke-miterlimit:10;}
	.st22{fill:none;stroke:url(#SVGID_18_);stroke-width:2;stroke-miterlimit:10;}
	.st23{fill:none;stroke:url(#SVGID_19_);stroke-width:2;stroke-miterlimit:10;}
	.st24{fill:none;stroke:url(#SVGID_20_);stroke-width:2;stroke-miterlimit:10;}
	.st25{fill:none;stroke:url(#SVGID_21_);stroke-width:2;stroke-miterlimit:10;}
	.st26{fill:none;stroke:url(#SVGID_22_);stroke-width:2;stroke-miterlimit:10;}
	.st27{fill:none;stroke:url(#SVGID_23_);stroke-width:2;stroke-miterlimit:10;}
	.st28{fill:none;stroke:url(#SVGID_24_);stroke-width:2;stroke-miterlimit:10;}
	.st29{fill:none;stroke:url(#SVGID_25_);stroke-width:2;stroke-miterlimit:10;}
	.st30{fill:none;stroke:url(#SVGID_26_);stroke-width:2;stroke-miterlimit:10;}
	.st31{fill:none;stroke:url(#SVGID_27_);stroke-width:2;stroke-miterlimit:10;}
	.st32{fill:none;stroke:url(#SVGID_28_);stroke-width:2;stroke-miterlimit:10;}
	.st33{fill:none;stroke:url(#SVGID_29_);stroke-width:2;stroke-miterlimit:10;}
	.st34{fill:none;stroke:url(#SVGID_30_);stroke-width:2;stroke-miterlimit:10;}
	.st35{fill:none;stroke:url(#SVGID_31_);stroke-width:2;stroke-miterlimit:10;}
	.st36{fill:none;stroke:url(#SVGID_32_);stroke-width:2;stroke-miterlimit:10;}
	.st37{fill:none;stroke:url(#SVGID_33_);stroke-width:2;stroke-miterlimit:10;}
	.st38{fill:none;stroke:url(#SVGID_34_);stroke-width:2;stroke-miterlimit:10;}
	.st39{fill:none;stroke:url(#SVGID_35_);stroke-width:2;stroke-miterlimit:10;}
	.st40{fill:none;stroke:url(#SVGID_36_);stroke-width:2;stroke-miterlimit:10;}
	.st41{fill:none;stroke:url(#SVGID_37_);stroke-width:2;stroke-miterlimit:10;}
	.st42{fill:none;stroke:url(#SVGID_38_);stroke-width:2;stroke-miterlimit:10;}
	.st43{fill:none;stroke:url(#SVGID_39_);stroke-width:2;stroke-miterlimit:10;}
	.st44{fill:none;stroke:url(#SVGID_40_);stroke-width:2;stroke-miterlimit:10;}
	.st45{fill:none;stroke:url(#SVGID_41_);stroke-width:2;stroke-miterlimit:10;}
	.st46{fill:url(#SVGID_42_);}
	.st47{fill:url(#SVGID_43_);}
	.st48{fill:none;stroke:url(#SVGID_44_);stroke-width:2;stroke-miterlimit:10;}
	.st49{fill:none;stroke:url(#SVGID_45_);stroke-width:2;stroke-miterlimit:10;}
	.st50{fill:none;stroke:url(#SVGID_46_);stroke-width:2;stroke-miterlimit:10;}
	.st51{fill:none;stroke:url(#SVGID_47_);stroke-width:2;stroke-miterlimit:10;}
	.st52{fill:none;stroke:url(#SVGID_48_);stroke-width:2;stroke-miterlimit:10;}
	.st53{fill:none;stroke:url(#SVGID_49_);stroke-width:2;stroke-miterlimit:10;}
	.st54{fill:none;stroke:url(#SVGID_50_);stroke-width:2;stroke-miterlimit:10;}
	.st55{fill:none;stroke:url(#SVGID_51_);stroke-width:2;stroke-miterlimit:10;}
	.st56{fill:none;stroke:url(#SVGID_52_);stroke-width:2;stroke-miterlimit:10;}
	.st57{fill:none;stroke:url(#SVGID_53_);stroke-width:2;stroke-miterlimit:10;}
	.st58{fill:none;stroke:url(#SVGID_54_);stroke-width:2;stroke-miterlimit:10;}
	.st59{fill:none;stroke:url(#SVGID_55_);stroke-width:2;stroke-miterlimit:10;}
	.st60{fill:none;stroke:url(#SVGID_56_);stroke-width:2;stroke-miterlimit:10;}
	.st61{fill:none;stroke:url(#SVGID_57_);stroke-width:2;stroke-miterlimit:10;}
	.st62{fill:none;stroke:url(#SVGID_58_);stroke-width:2;stroke-miterlimit:10;}
	.st63{fill:none;stroke:url(#SVGID_59_);stroke-width:2;stroke-miterlimit:10;}
	.st64{fill:none;stroke:url(#SVGID_60_);stroke-width:2;stroke-miterlimit:10;}
	.st65{fill:none;stroke:url(#SVGID_61_);stroke-width:2;stroke-miterlimit:10;}
	.st66{fill:none;stroke:url(#SVGID_62_);stroke-width:2;stroke-miterlimit:10;}
	.st67{fill:none;stroke:url(#SVGID_63_);stroke-width:2;stroke-miterlimit:10;}
	.st68{fill:none;stroke:url(#SVGID_64_);stroke-width:2;stroke-miterlimit:10;}
	.st69{fill:none;stroke:url(#SVGID_65_);stroke-width:2;stroke-miterlimit:10;}
	.st70{fill:none;stroke:url(#SVGID_66_);stroke-width:2;stroke-miterlimit:10;}
	.st71{fill:none;stroke:url(#SVGID_67_);stroke-width:2;stroke-miterlimit:10;}
	.st72{fill:none;stroke:url(#SVGID_68_);stroke-width:2;stroke-miterlimit:10;}
	.st73{fill:none;stroke:url(#SVGID_69_);stroke-width:2;stroke-miterlimit:10;}
	.st74{fill:none;stroke:url(#SVGID_70_);stroke-width:2;stroke-miterlimit:10;}
	.st75{fill:none;stroke:url(#SVGID_71_);stroke-width:2;stroke-miterlimit:10;}
	.st76{fill:none;stroke:url(#SVGID_72_);stroke-width:2;stroke-miterlimit:10;}
	.st77{fill:none;stroke:url(#SVGID_73_);stroke-width:2;stroke-miterlimit:10;}
	.st78{fill:none;stroke:url(#SVGID_74_);stroke-width:2;stroke-miterlimit:10;}
</style>
<image style="overflow:visible;" width="1920" height="7224" id="Smarthr_x5F_final_xA0_Image" xlink:href="28454E516FFD8CDA.png"  transform="matrix(1 0 0 1 1853.1176 -2774.7148)">
</image>
<line class="st0" x1="663.7" y1="-1663.8" x2="769.9" y2="-1663.8"/>
<line class="st0" x1="663.7" y1="-1049.7" x2="769.9" y2="-1049.7"/>
<line class="st1" x1="0" y1="3144.9" x2="104.1" y2="3144.9"/>
<g>
	<g>
		<rect x="-2364.6" y="659.6" class="st2" width="63.2" height="20"/>
	</g>
</g>
<g>
	<g>
		<rect x="-2280.4" y="659.6" class="st2" width="21.1" height="20"/>
	</g>
</g>
<path class="st3" d="M-1815.6-911.2c0,0,169.5,91.8,317,24c198-91,433-8,433-8v155h-750V-911.2z"/>
<linearGradient id="SVGID_1_" gradientUnits="userSpaceOnUse" x1="-1011.9074" y1="-1517.5605" x2="-580.463" y2="-1517.5605">
	<stop  offset="0" style="stop-color:#0760C5"/>
	<stop  offset="0.109" style="stop-color:#0C54B4"/>
	<stop  offset="0.3565" style="stop-color:#153E93"/>
	<stop  offset="0.5936" style="stop-color:#1C2E7B"/>
	<stop  offset="0.8137" style="stop-color:#21246D"/>
	<stop  offset="1" style="stop-color:#222168"/>
</linearGradient>
<path class="st4" d="M-1011.9-1550.8c0,0,307-37.5,431,111.7c1-91.7,0-112.7,0-112.7S-821.9-1651.8-1011.9-1550.8z"/>
<linearGradient id="SVGID_2_" gradientUnits="userSpaceOnUse" x1="-877.6445" y1="-838.9871" x2="-127.5515" y2="-838.9871" gradientTransform="matrix(1.0048 -8.213840e-04 1.103310e-03 1.3498 -451.224 -413.2023)">
	<stop  offset="0" style="stop-color:#222168"/>
	<stop  offset="4.024143e-02" style="stop-color:#20256E"/>
	<stop  offset="9.658029e-02" style="stop-color:#1B3281"/>
	<stop  offset="0.1624" style="stop-color:#12469F"/>
	<stop  offset="0.2304" style="stop-color:#0760C5"/>
	<stop  offset="0.3488" style="stop-color:#0386B1"/>
	<stop  offset="0.4458" style="stop-color:#00A89F"/>
	<stop  offset="0.4584" style="stop-color:#01A2A2"/>
	<stop  offset="0.5287" style="stop-color:#0385B1"/>
	<stop  offset="0.5986" style="stop-color:#0571BC"/>
	<stop  offset="0.6676" style="stop-color:#0764C3"/>
	<stop  offset="0.7343" style="stop-color:#0760C5"/>
</linearGradient>
<path class="st5" d="M-580.3-1545.7c0,0-206.7-105-435.1,2.6c-108.5,51.2-318.6-32.5-318.6-32.5l0,44.5c0,0,122.6,172.7,318.6-11.3
	c209.4-196.6,435.1-11.4,435.1-11.4L-580.3-1545.7z"/>
<g>
	<g>
		<path class="st6" d="M-1360.7-2088.4c-5.2,17.1-9.8,34.4-13.7,51.8c-2,8.7-3.8,17.4-5.4,26.2c-1.1,5.9-3,12.4-1.5,18.4
			c1.4,5.2,5.8,8.7,11.2,8.1c6.5-0.6,11.9-5.7,16.6-9.7c11.2-9.5,21-20.6,29-32.8c9.1-13.8,16-29,20.4-45c0.7-2.5-1.9-5.6-4.6-4.6
			c-31.4,11.9-56,37.8-66.6,69.6c-1.4,4.2,4.1,6.7,7,4.1c28.8-26.1,52.8-57.2,70.8-91.6c1.9-3.7-2.1-8.6-6-6
			c-37.9,24.6-71.3,55.5-98.6,91.5c-2.9,3.9,2.6,8.5,6.3,6.3c38.8-22.2,73.7-50.8,103.1-84.5c3.3-3.8-0.9-10.3-5.6-7.3
			c-28.6,18-55.3,38.8-79.9,61.9c-3.8,3.6,1.2,10.2,5.6,7.3c25.8-16.8,49.9-36.2,71.6-58.1c3.6-3.6-1.1-10.2-5.6-7.3
			c-27.3,17.9-53.1,38.1-77.1,60.2c-3.9,3.6,1.1,10,5.6,7.3c20.9-12.8,40.6-27.5,58.9-43.8c4.1-3.6-1.1-9.7-5.6-7.3
			c-24.4,12.8-46.6,29.4-65.8,49.1c-3.8,3.9,1,9.6,5.6,7.3c19.5-9.8,38.3-21.1,56.1-33.8c4.8-3.4,0.4-11.3-4.7-8
			c-20.6,13.2-40.1,28-58.3,44.2c-4,3.6,1.1,9.6,5.6,7.3c26.3-14,51.1-30.4,74.2-49.1c4-3.2-1.4-10.3-5.6-7.2
			c-20.5,15.2-40.9,30.4-61.4,45.6c-4.6,3.4-0.6,11,4.6,7.9c22.5-13.1,43.9-27.9,64.1-44.3c4-3.2-1.3-10.2-5.5-7.2
			c-30.6,21.5-61.2,43-91.9,64.4c1.5,2.6,3.1,5.2,4.6,7.9c31-22.2,62.8-43.4,95.3-63.4c5-3,0.5-10.6-4.6-7.8
			c-31.3,17.2-60.8,37.7-87.9,60.9c-3.9,3.3,1.2,9.8,5.5,7.1c31.4-19.7,62.8-39.4,94.2-59.1c4.9-3.1,0.5-10.6-4.5-7.7
			c-38.3,21.8-74.7,46.9-108.8,74.9c-3.9,3.2,1.3,9.9,5.4,7c36.7-26.3,75-50.3,114.6-71.9c5-2.7,0.6-10.2-4.5-7.7
			c-27.9,14.3-54,31.8-78,51.9c-3.9,3.3,1.1,9.4,5.3,6.9c26.1-15.1,51.8-30.9,76.9-47.5c4.7-3.1,0.6-10.3-4.4-7.6
			c-28.4,15-55.3,32.7-80.6,52.6c-4.2,3.3,1.2,8.7,5.3,6.9c29.9-13.3,58.1-29.8,84.3-49.4c4.4-3.3,0.7-10.1-4.4-7.5
			c-31.1,15.3-59.8,35.1-85.3,58.5c-3.8,3.5,1,9,5.3,6.8c29.6-15.4,58.3-32.5,85.8-51.5c4.5-3.1,0.6-10.2-4.4-7.5
			c-40.7,22.7-79.1,49.4-114.5,79.6c-3.8,3.2,1.1,9.3,5.2,6.8c33.9-20.4,68.4-39.8,103.5-58.1c-1.4-2.5-2.9-4.9-4.3-7.4
			c-31.5,20.6-62.2,42.6-91.9,65.7c-3.9,3,1.1,9.2,5.2,6.7c30.9-18.8,61.9-37.7,92.8-56.5c-1.4-2.4-2.9-4.9-4.3-7.3
			c-25.6,18-51.3,36-76.9,54c-4.4,3.1-0.6,10,4.3,7.3c24.3-13.2,48.2-27.2,71.6-42c-1.4-2.4-2.8-4.9-4.3-7.3
			c-32.1,20.9-63.6,42.6-94.6,65.1c-4.3,3.1-0.4,10.2,4.2,7.3c35.2-21.9,70.5-43.7,105.7-65.6c4.6-2.9,0.6-9.7-4.2-7.2
			c-34.1,17.4-65.8,39.1-94.4,64.6c-3.6,3.2,1,8.7,5.1,6.5c27.1-14.7,53.3-30.8,78.6-48.3c4.3-3,0.4-10-4.2-7.2
			c-32.5,19.6-63.8,40.9-94,63.9c-4.1,3.1-0.6,9.9,4.2,7.1c25.9-14.9,51.7-29.8,77.6-44.7c-1.4-2.4-2.8-4.7-4.2-7.1
			c-21.3,15.7-41.8,32.5-61.3,50.5c-3.4,3.2,1,8.9,5,6.4c24.8-15,49.6-30,74.4-45c-1.4-2.4-2.8-4.7-4.1-7.1
			c-34,22.5-66.1,47.7-96.1,75.3c-3.4,3.1,1,8.8,4.9,6.4c26.2-16,52.5-32,78.7-47.9c-1.4-2.3-2.7-4.7-4.1-7
			c-19.1,14.5-38.2,29-57.3,43.5c-4.1,3.1-0.5,9.9,4.1,7c13.4-8.2,26.8-16.4,40.2-24.6c-1.6-2.1-3.3-4.3-4.9-6.4
			c-6.8,5.9-14.4,10.5-22.7,14.1c-4.8,2-0.7,9.1,4.1,7c8.9-3.8,17-9,24.3-15.4c3.5-3.1-1-8.8-4.9-6.4c-13.4,8.2-26.8,16.4-40.2,24.6
			c1.4,2.3,2.7,4.7,4.1,7c19.1-14.5,38.2-29,57.3-43.5c4.1-3.1,0.5-9.9-4.1-7c-26.2,16-52.5,32-78.7,47.9c1.6,2.1,3.3,4.3,4.9,6.4
			c29.5-27.1,61-51.9,94.4-74c4.4-2.9,0.4-9.8-4.1-7.1c-24.8,15-49.6,30-74.4,44.9c1.7,2.1,3.3,4.3,5,6.4
			c19-17.5,38.8-33.9,59.6-49.2c4.2-3.1,0.5-9.8-4.2-7.1c-25.9,14.9-51.7,29.8-77.6,44.7c1.4,2.4,2.8,4.8,4.2,7.1
			c30.2-23,61.5-44.3,94-63.9c-1.4-2.4-2.8-4.8-4.2-7.2c-25.3,17.5-51.6,33.6-78.6,48.3c1.7,2.2,3.4,4.4,5.1,6.5
			c28-25,59.2-46.3,92.7-63.3c-1.4-2.4-2.8-4.8-4.2-7.2c-35.2,21.8-70.5,43.7-105.7,65.5c1.4,2.4,2.8,4.8,4.2,7.3
			c31-22.5,62.5-44.2,94.6-65.1c4.5-3,0.4-10.2-4.3-7.3c-23.4,14.8-47.3,28.8-71.6,41.9c1.4,2.4,2.9,4.9,4.3,7.3
			c25.6-18,51.3-36,76.9-54c4.4-3.1,0.5-10.2-4.3-7.3c-30.9,18.8-61.9,37.6-92.8,56.5c1.7,2.2,3.5,4.5,5.2,6.7
			c29.2-22.7,59.3-44.2,90.2-64.4c4.6-3,0.6-10-4.3-7.4c-35.1,18.3-69.6,37.7-103.5,58.1c1.7,2.3,3.5,4.5,5.2,6.8
			c34.9-29.7,72.7-55.9,112.8-78.2c-1.5-2.5-2.9-5-4.4-7.5c-27.5,18.9-56.2,36.1-85.8,51.4c1.8,2.3,3.5,4.6,5.3,6.8
			c25-23,53.1-42.2,83.6-57.1c-1.5-2.5-2.9-5-4.4-7.5c-26.2,19.6-54.4,36.1-84.3,49.4c1.8,2.3,3.5,4.6,5.3,6.9
			c24.7-19.4,51.1-36.5,78.8-51.2c-1.5-2.5-3-5.1-4.4-7.6c-25.1,16.6-50.8,32.5-76.9,47.5c1.8,2.3,3.6,4.6,5.3,6.9
			c23.4-19.7,49-36.6,76.2-50.5c-1.5-2.6-3-5.1-4.5-7.7c-39.6,21.6-77.9,45.6-114.6,71.9c1.8,2.3,3.6,4.7,5.4,7
			c33.5-27.5,69.4-52,107.1-73.5c-1.5-2.6-3-5.2-4.5-7.7c-31.4,19.7-62.8,39.4-94.3,59.1c1.8,2.4,3.6,4.7,5.5,7.1
			c26.6-22.8,55.5-42.6,86.1-59.5c-1.5-2.6-3-5.2-4.6-7.8c-32.5,20-64.3,41.1-95.3,63.3c-4.7,3.4-0.2,11.2,4.6,7.9
			c30.6-21.5,61.3-42.9,91.9-64.4c-1.8-2.4-3.7-4.8-5.5-7.2c-19.6,15.8-40.5,30.1-62.3,42.8c1.5,2.6,3.1,5.3,4.6,7.9
			c20.5-15.2,40.9-30.4,61.4-45.5c-1.9-2.4-3.7-4.8-5.6-7.2c-22.5,18.2-46.8,34.1-72.4,47.6c1.9,2.4,3.7,4.8,5.6,7.3
			c17.7-15.7,36.6-30,56.5-42.7c-1.6-2.7-3.1-5.3-4.7-8c-17.8,12.6-36.6,23.9-56.1,33.7c1.9,2.4,3.7,4.9,5.6,7.3
			c18.7-19.2,40.2-35.2,63.9-47.7c-1.9-2.4-3.7-4.9-5.6-7.3c-17.7,15.8-36.8,29.9-57,42.3c1.9,2.4,3.7,4.9,5.6,7.3
			c23.5-21.6,48.6-41.3,75.3-58.8c-1.9-2.4-3.7-4.9-5.6-7.3c-21.2,21.3-44.5,40.3-69.7,56.6c1.9,2.4,3.7,4.9,5.6,7.3
			c24.1-22.6,50.2-42.8,78.1-60.4c-1.9-2.4-3.7-4.9-5.6-7.3c-28.9,33.1-63.1,61.2-101.2,83c2.1,2.1,4.2,4.2,6.3,6.3
			c26.3-34.7,58.5-64.7,95-88.6c-2-2-4-4-6-6c-17.6,33.9-41,64.2-69.1,90.1c2.3,1.4,4.7,2.7,7,4.1c9.4-29.2,32-53.3,60.5-64.6
			c-1.5-1.5-3.1-3.1-4.6-4.6c-8,30.9-26.2,60.3-51.9,79.7c-3.5,2.6-9.9,6.7-12.4,0.7c-1.1-2.7-0.4-6.4-0.1-9.2
			c1.3-9.9,3-19.7,4.9-29.5c3.5-18.8,7.9-37.5,12.8-56C-1357.3-2089.5-1360.2-2090.3-1360.7-2088.4L-1360.7-2088.4z"/>
	</g>
</g>
<linearGradient id="SVGID_3_" gradientUnits="userSpaceOnUse" x1="30.271" y1="1836.0302" x2="-945.6425" y2="1836.0302" gradientTransform="matrix(-1 0 0 1 -1300.8148 -1900.0269)">
	<stop  offset="0" style="stop-color:#0760C5"/>
	<stop  offset="0.1523" style="stop-color:#066EBE"/>
	<stop  offset="0.4371" style="stop-color:#0291AB"/>
	<stop  offset="0.5264" style="stop-color:#019EA4"/>
	<stop  offset="1" style="stop-color:#222168"/>
</linearGradient>
<path class="st7" d="M-355.2-111.1c0,0-560.6-324.2-969.5,328.4c0-438.9-6.4-466-6.4-466S-515.9-539.9-355.2-111.1z"/>
<linearGradient id="SVGID_4_" gradientUnits="userSpaceOnUse" x1="-945.6425" y1="1672.8939" x2="30.2711" y2="1672.8939" gradientTransform="matrix(-1 0 0 1 -1300.8148 -1900.0269)">
	<stop  offset="0" style="stop-color:#0760C5"/>
	<stop  offset="0.5821" style="stop-color:#163C90"/>
	<stop  offset="1" style="stop-color:#222168"/>
</linearGradient>
<path class="st8" d="M-355.2-111.1c0,0-285.5-434.5-975.9,111.1c0-329.1,0-371,0-371.3c0-1.9,4.7-37.2,6.4-38.2
	C-1270.3-441.9-439.3-582.5-355.2-111.1z"/>
<g>
	<linearGradient id="SVGID_5_" gradientUnits="userSpaceOnUse" x1="-2231.927" y1="208.1961" x2="-2158.4387" y2="208.1961">
		<stop  offset="0" style="stop-color:#0774BE"/>
		<stop  offset="0.2326" style="stop-color:#0682BA"/>
		<stop  offset="0.6672" style="stop-color:#03A5AE"/>
		<stop  offset="1" style="stop-color:#01C5A4"/>
	</linearGradient>
	<circle class="st9" cx="-2195.2" cy="208.2" r="35.7"/>
	<linearGradient id="SVGID_6_" gradientUnits="userSpaceOnUse" x1="-2249.1235" y1="273.041" x2="-2141.1931" y2="273.041">
		<stop  offset="0" style="stop-color:#0774BE"/>
		<stop  offset="0.2326" style="stop-color:#0682BA"/>
		<stop  offset="0.6672" style="stop-color:#03A5AE"/>
		<stop  offset="1" style="stop-color:#01C5A4"/>
	</linearGradient>
	<path class="st10" d="M-2142.3,299.8h-105.8c1-48.5,29.9-53.4,29.9-53.4c6.7,4.1,14.6,6.4,23,6.4c8.3,0,16.1-2.3,22.7-6.2
		C-2172.4,246.5-2145.2,255.6-2142.3,299.8z"/>
	<linearGradient id="SVGID_7_" gradientUnits="userSpaceOnUse" x1="-2578.2341" y1="93.8451" x2="-2457.2114" y2="93.8451">
		<stop  offset="0" style="stop-color:#0774BE"/>
		<stop  offset="0.2326" style="stop-color:#0682BA"/>
		<stop  offset="0.6672" style="stop-color:#03A5AE"/>
		<stop  offset="1" style="stop-color:#01C5A4"/>
	</linearGradient>
	<path class="st11" d="M-2577.3,148.5c23.3-50.7,66.6-90.4,119.8-108.8"/>
	<linearGradient id="SVGID_8_" gradientUnits="userSpaceOnUse" x1="-2576.2061" y1="378.7924" x2="-2441.2456" y2="378.7924">
		<stop  offset="0" style="stop-color:#0774BE"/>
		<stop  offset="0.2326" style="stop-color:#0682BA"/>
		<stop  offset="0.6672" style="stop-color:#03A5AE"/>
		<stop  offset="1" style="stop-color:#01C5A4"/>
	</linearGradient>
	<path class="st12" d="M-2441.5,433.2c-59-15.1-107.7-55.7-133.8-109.3"/>
	<linearGradient id="SVGID_9_" gradientUnits="userSpaceOnUse" x1="-2324.2891" y1="379.1016" x2="-2199.7947" y2="379.1016">
		<stop  offset="0" style="stop-color:#0774BE"/>
		<stop  offset="0.2326" style="stop-color:#0682BA"/>
		<stop  offset="0.6672" style="stop-color:#03A5AE"/>
		<stop  offset="1" style="stop-color:#01C5A4"/>
	</linearGradient>
	<path class="st13" d="M-2200.7,324.5c-19.4,44-77.2,93-123.3,108.7"/>
	<linearGradient id="SVGID_10_" gradientUnits="userSpaceOnUse" x1="-2312.3308" y1="94.9924" x2="-2199.77" y2="94.9924">
		<stop  offset="0" style="stop-color:#0774BE"/>
		<stop  offset="0.2326" style="stop-color:#0682BA"/>
		<stop  offset="0.6672" style="stop-color:#03A5AE"/>
		<stop  offset="1" style="stop-color:#01C5A4"/>
	</linearGradient>
	<path class="st14" d="M-2311.9,39.9c53.2,22,91.5,56.4,111.2,110.7"/>
	<linearGradient id="SVGID_11_" gradientUnits="userSpaceOnUse" x1="-2419.4739" y1="400.7059" x2="-2345.9856" y2="400.7059">
		<stop  offset="0" style="stop-color:#0774BE"/>
		<stop  offset="0.2326" style="stop-color:#0682BA"/>
		<stop  offset="0.6672" style="stop-color:#03A5AE"/>
		<stop  offset="1" style="stop-color:#01C5A4"/>
	</linearGradient>
	<circle class="st15" cx="-2382.7" cy="400.7" r="35.7"/>
	<linearGradient id="SVGID_12_" gradientUnits="userSpaceOnUse" x1="-2436.6702" y1="465.5508" x2="-2328.74" y2="465.5508">
		<stop  offset="0" style="stop-color:#0774BE"/>
		<stop  offset="0.2326" style="stop-color:#0682BA"/>
		<stop  offset="0.6672" style="stop-color:#03A5AE"/>
		<stop  offset="1" style="stop-color:#01C5A4"/>
	</linearGradient>
	<path class="st16" d="M-2329.8,492.3h-105.8c1-48.5,29.9-53.4,29.9-53.4c6.7,4.1,14.6,6.4,23,6.4c8.3,0,16.1-2.3,22.7-6.2
		C-2360,439.1-2332.8,448.1-2329.8,492.3z"/>
	<linearGradient id="SVGID_13_" gradientUnits="userSpaceOnUse" x1="-2421.4875" y1="3.6836" x2="-2347.9993" y2="3.6836">
		<stop  offset="0" style="stop-color:#0774BE"/>
		<stop  offset="0.2326" style="stop-color:#0682BA"/>
		<stop  offset="0.6672" style="stop-color:#03A5AE"/>
		<stop  offset="1" style="stop-color:#01C5A4"/>
	</linearGradient>
	<circle class="st17" cx="-2384.7" cy="3.7" r="35.7"/>
	<linearGradient id="SVGID_14_" gradientUnits="userSpaceOnUse" x1="-2438.6841" y1="68.5285" x2="-2330.7537" y2="68.5285">
		<stop  offset="0" style="stop-color:#0774BE"/>
		<stop  offset="0.2326" style="stop-color:#0682BA"/>
		<stop  offset="0.6672" style="stop-color:#03A5AE"/>
		<stop  offset="1" style="stop-color:#01C5A4"/>
	</linearGradient>
	<path class="st18" d="M-2331.8,95.2h-105.8c1-48.5,29.9-53.4,29.9-53.4c6.7,4.1,14.6,6.4,23,6.4c8.3,0,16.1-2.3,22.7-6.2
		C-2362,42-2334.8,51.1-2331.8,95.2z"/>
	<linearGradient id="SVGID_15_" gradientUnits="userSpaceOnUse" x1="-2618.4028" y1="208.2764" x2="-2544.9146" y2="208.2764">
		<stop  offset="0" style="stop-color:#0774BE"/>
		<stop  offset="0.2326" style="stop-color:#0682BA"/>
		<stop  offset="0.6672" style="stop-color:#03A5AE"/>
		<stop  offset="1" style="stop-color:#01C5A4"/>
	</linearGradient>
	<circle class="st19" cx="-2581.7" cy="208.3" r="35.7"/>
	<linearGradient id="SVGID_16_" gradientUnits="userSpaceOnUse" x1="-2635.5991" y1="273.1214" x2="-2527.6689" y2="273.1214">
		<stop  offset="0" style="stop-color:#0774BE"/>
		<stop  offset="0.2326" style="stop-color:#0682BA"/>
		<stop  offset="0.6672" style="stop-color:#03A5AE"/>
		<stop  offset="1" style="stop-color:#01C5A4"/>
	</linearGradient>
	<path class="st20" d="M-2528.7,299.8h-105.8c1-48.5,29.9-53.4,29.9-53.4c6.7,4.1,14.6,6.4,23,6.4c8.3,0,16.1-2.3,22.7-6.2
		C-2558.9,246.6-2531.7,255.7-2528.7,299.8z"/>
	<linearGradient id="SVGID_17_" gradientUnits="userSpaceOnUse" x1="-2419.4739" y1="208.1961" x2="-2345.9856" y2="208.1961">
		<stop  offset="0" style="stop-color:#0774BE"/>
		<stop  offset="0.2326" style="stop-color:#0682BA"/>
		<stop  offset="0.6672" style="stop-color:#03A5AE"/>
		<stop  offset="1" style="stop-color:#01C5A4"/>
	</linearGradient>
	<circle class="st21" cx="-2382.7" cy="208.2" r="35.7"/>
	<linearGradient id="SVGID_18_" gradientUnits="userSpaceOnUse" x1="-2436.6702" y1="273.041" x2="-2328.74" y2="273.041">
		<stop  offset="0" style="stop-color:#0774BE"/>
		<stop  offset="0.2326" style="stop-color:#0682BA"/>
		<stop  offset="0.6672" style="stop-color:#03A5AE"/>
		<stop  offset="1" style="stop-color:#01C5A4"/>
	</linearGradient>
	<path class="st22" d="M-2329.8,299.8h-105.8c1-48.5,29.9-53.4,29.9-53.4c6.7,4.1,14.6,6.4,23,6.4c8.3,0,16.1-2.3,22.7-6.2
		C-2360,246.5-2332.8,255.6-2329.8,299.8z"/>
</g>
<g>
	<linearGradient id="SVGID_19_" gradientUnits="userSpaceOnUse" x1="-2408.7939" y1="1514.2946" x2="-2157.7866" y2="1514.2946">
		<stop  offset="0" style="stop-color:#0774BE"/>
		<stop  offset="0.2326" style="stop-color:#0682BA"/>
		<stop  offset="0.6672" style="stop-color:#03A5AE"/>
		<stop  offset="1" style="stop-color:#01C5A4"/>
	</linearGradient>
	<circle class="st23" cx="-2283.3" cy="1514.3" r="124.5"/>
	<linearGradient id="SVGID_20_" gradientUnits="userSpaceOnUse" x1="-2429.8018" y1="1514.2946" x2="-2136.7786" y2="1514.2946">
		<stop  offset="0" style="stop-color:#0774BE"/>
		<stop  offset="0.2326" style="stop-color:#0682BA"/>
		<stop  offset="0.6672" style="stop-color:#03A5AE"/>
		<stop  offset="1" style="stop-color:#01C5A4"/>
	</linearGradient>
	<circle class="st24" cx="-2283.3" cy="1514.3" r="145.5"/>
	<linearGradient id="SVGID_21_" gradientUnits="userSpaceOnUse" x1="-2223.8574" y1="1706.2124" x2="-2061.3203" y2="1706.2124">
		<stop  offset="0" style="stop-color:#0774BE"/>
		<stop  offset="0.2326" style="stop-color:#0682BA"/>
		<stop  offset="0.6672" style="stop-color:#03A5AE"/>
		<stop  offset="1" style="stop-color:#01C5A4"/>
	</linearGradient>
	<path class="st25" d="M-2172.8,1610.7l104.3,140.6c10.3,13.9,7.4,33.5-6.5,43.8c-13.9,10.3-33.5,7.4-43.8-6.5l-104.3-140.6"/>
	<linearGradient id="SVGID_22_" gradientUnits="userSpaceOnUse" x1="-2269.5027" y1="1502.892" x2="-2221.6196" y2="1502.892">
		<stop  offset="0" style="stop-color:#0774BE"/>
		<stop  offset="0.2326" style="stop-color:#0682BA"/>
		<stop  offset="0.6672" style="stop-color:#03A5AE"/>
		<stop  offset="1" style="stop-color:#01C5A4"/>
	</linearGradient>
	<line class="st26" x1="-2222.3" y1="1482.8" x2="-2268.8" y2="1523"/>
	<linearGradient id="SVGID_23_" gradientUnits="userSpaceOnUse" x1="-2246.2141" y1="1502.892" x2="-2198.3311" y2="1502.892">
		<stop  offset="0" style="stop-color:#0774BE"/>
		<stop  offset="0.2326" style="stop-color:#0682BA"/>
		<stop  offset="0.6672" style="stop-color:#03A5AE"/>
		<stop  offset="1" style="stop-color:#01C5A4"/>
	</linearGradient>
	<line class="st27" x1="-2199" y1="1482.8" x2="-2245.6" y2="1523"/>
	<linearGradient id="SVGID_24_" gradientUnits="userSpaceOnUse" x1="-2246.2141" y1="1522.9733" x2="-2198.3311" y2="1522.9733">
		<stop  offset="0" style="stop-color:#0774BE"/>
		<stop  offset="0.2326" style="stop-color:#0682BA"/>
		<stop  offset="0.6672" style="stop-color:#03A5AE"/>
		<stop  offset="1" style="stop-color:#01C5A4"/>
	</linearGradient>
	<line class="st28" x1="-2199" y1="1502.9" x2="-2245.6" y2="1543.1"/>
	<linearGradient id="SVGID_25_" gradientUnits="userSpaceOnUse" x1="-2271.9229" y1="1537.1074" x2="-2251.9824" y2="1537.1074">
		<stop  offset="0" style="stop-color:#0774BE"/>
		<stop  offset="0.2326" style="stop-color:#0682BA"/>
		<stop  offset="0.6672" style="stop-color:#03A5AE"/>
		<stop  offset="1" style="stop-color:#01C5A4"/>
	</linearGradient>
	<line class="st29" x1="-2252.6" y1="1529.1" x2="-2271.3" y2="1545.1"/>
	<linearGradient id="SVGID_26_" gradientUnits="userSpaceOnUse" x1="-2405.7566" y1="1467.189" x2="-2254.1511" y2="1467.189">
		<stop  offset="0" style="stop-color:#0774BE"/>
		<stop  offset="0.2326" style="stop-color:#0682BA"/>
		<stop  offset="0.6672" style="stop-color:#03A5AE"/>
		<stop  offset="1" style="stop-color:#01C5A4"/>
	</linearGradient>
	<path class="st30" d="M-2257.9,1392.4c1.8,8.4,2.8,17.2,2.8,26.2c0,67.7-54.9,122.6-122.6,122.6c-9.5,0-18.8-1.1-27.8-3.2"/>
	<linearGradient id="SVGID_27_" gradientUnits="userSpaceOnUse" x1="-2501.4021" y1="1413.1748" x2="-2264.2568" y2="1413.1748">
		<stop  offset="0" style="stop-color:#0774BE"/>
		<stop  offset="0.2326" style="stop-color:#0682BA"/>
		<stop  offset="0.6672" style="stop-color:#03A5AE"/>
		<stop  offset="1" style="stop-color:#01C5A4"/>
	</linearGradient>
	<path class="st31" d="M-2427.9,1530.5c-42.7-19.2-72.5-62.1-72.5-111.9c0-67.7,54.9-122.6,122.6-122.6c50.4,0,93.8,30.5,112.6,74"
		/>
	<linearGradient id="SVGID_28_" gradientUnits="userSpaceOnUse" x1="-2560.3479" y1="1641.0778" x2="-2195.1562" y2="1641.0778">
		<stop  offset="0" style="stop-color:#0774BE"/>
		<stop  offset="0.2326" style="stop-color:#0682BA"/>
		<stop  offset="0.6672" style="stop-color:#03A5AE"/>
		<stop  offset="1" style="stop-color:#01C5A4"/>
	</linearGradient>
	<path class="st32" d="M-2206.4,1670.1c5,18.1,8.6,38.9,10.2,62.5h-363.1c3.3-166.5,102.6-183.1,102.6-183.1
		c11.5,7,24,12.4,37.3,16.2"/>
	<linearGradient id="SVGID_29_" gradientUnits="userSpaceOnUse" x1="-2394.4658" y1="1586.3237" x2="-2223.8694" y2="1586.3237">
		<stop  offset="0" style="stop-color:#0774BE"/>
		<stop  offset="0.2326" style="stop-color:#0682BA"/>
		<stop  offset="0.6672" style="stop-color:#03A5AE"/>
		<stop  offset="1" style="stop-color:#01C5A4"/>
	</linearGradient>
	<path class="st33" d="M-2394.4,1570.6c5.4,0.6,11,0.9,16.6,0.9c28.5,0,55.2-7.8,78-21.4c0,0,44.1,14.7,75,73.1"/>
</g>
<linearGradient id="SVGID_30_" gradientUnits="userSpaceOnUse" x1="-728.0706" y1="1125.6041" x2="-654.5823" y2="1125.6041">
	<stop  offset="0" style="stop-color:#0774BE"/>
	<stop  offset="0.1535" style="stop-color:#0682BA"/>
	<stop  offset="0.4404" style="stop-color:#03A5AE"/>
	<stop  offset="0.6601" style="stop-color:#01C5A4"/>
	<stop  offset="0.722" style="stop-color:#02C2A3"/>
	<stop  offset="0.7752" style="stop-color:#04B79F"/>
	<stop  offset="0.8251" style="stop-color:#07A598"/>
	<stop  offset="0.8731" style="stop-color:#0C8C8F"/>
	<stop  offset="0.9196" style="stop-color:#136C84"/>
	<stop  offset="0.9645" style="stop-color:#1B4575"/>
	<stop  offset="1" style="stop-color:#222168"/>
</linearGradient>
<circle class="st34" cx="-691.3" cy="1125.6" r="35.7"/>
<linearGradient id="SVGID_31_" gradientUnits="userSpaceOnUse" x1="-745.267" y1="1190.4491" x2="-637.3367" y2="1190.4491">
	<stop  offset="0" style="stop-color:#0774BE"/>
	<stop  offset="0.1535" style="stop-color:#0682BA"/>
	<stop  offset="0.4404" style="stop-color:#03A5AE"/>
	<stop  offset="0.6601" style="stop-color:#01C5A4"/>
	<stop  offset="0.722" style="stop-color:#02C2A3"/>
	<stop  offset="0.7752" style="stop-color:#04B79F"/>
	<stop  offset="0.8251" style="stop-color:#07A598"/>
	<stop  offset="0.8731" style="stop-color:#0C8C8F"/>
	<stop  offset="0.9196" style="stop-color:#136C84"/>
	<stop  offset="0.9645" style="stop-color:#1B4575"/>
	<stop  offset="1" style="stop-color:#222168"/>
</linearGradient>
<path class="st35" d="M-638.4,1217.2h-105.8c1-48.5,29.9-53.4,29.9-53.4c6.7,4.1,14.6,6.4,23,6.4c8.3,0,16.1-2.3,22.7-6.2
	C-668.6,1163.9-641.4,1173-638.4,1217.2z"/>
<linearGradient id="SVGID_32_" gradientUnits="userSpaceOnUse" x1="-1074.3777" y1="1011.2531" x2="-953.355" y2="1011.2531">
	<stop  offset="0" style="stop-color:#0774BE"/>
	<stop  offset="0.1535" style="stop-color:#0682BA"/>
	<stop  offset="0.4404" style="stop-color:#03A5AE"/>
	<stop  offset="0.6601" style="stop-color:#01C5A4"/>
	<stop  offset="0.722" style="stop-color:#02C2A3"/>
	<stop  offset="0.7752" style="stop-color:#04B79F"/>
	<stop  offset="0.8251" style="stop-color:#07A598"/>
	<stop  offset="0.8731" style="stop-color:#0C8C8F"/>
	<stop  offset="0.9196" style="stop-color:#136C84"/>
	<stop  offset="0.9645" style="stop-color:#1B4575"/>
	<stop  offset="1" style="stop-color:#222168"/>
</linearGradient>
<path class="st36" d="M-1073.5,1065.9c23.3-50.7,66.6-90.4,119.8-108.8"/>
<linearGradient id="SVGID_33_" gradientUnits="userSpaceOnUse" x1="-1072.3496" y1="1296.2004" x2="-937.3892" y2="1296.2004">
	<stop  offset="0" style="stop-color:#0774BE"/>
	<stop  offset="0.1535" style="stop-color:#0682BA"/>
	<stop  offset="0.4404" style="stop-color:#03A5AE"/>
	<stop  offset="0.6601" style="stop-color:#01C5A4"/>
	<stop  offset="0.722" style="stop-color:#02C2A3"/>
	<stop  offset="0.7752" style="stop-color:#04B79F"/>
	<stop  offset="0.8251" style="stop-color:#07A598"/>
	<stop  offset="0.8731" style="stop-color:#0C8C8F"/>
	<stop  offset="0.9196" style="stop-color:#136C84"/>
	<stop  offset="0.9645" style="stop-color:#1B4575"/>
	<stop  offset="1" style="stop-color:#222168"/>
</linearGradient>
<path class="st37" d="M-937.6,1350.6c-59-15.1-107.7-55.7-133.8-109.3"/>
<linearGradient id="SVGID_34_" gradientUnits="userSpaceOnUse" x1="-820.4326" y1="1296.5096" x2="-695.9382" y2="1296.5096">
	<stop  offset="0" style="stop-color:#0774BE"/>
	<stop  offset="0.1535" style="stop-color:#0682BA"/>
	<stop  offset="0.4404" style="stop-color:#03A5AE"/>
	<stop  offset="0.6601" style="stop-color:#01C5A4"/>
	<stop  offset="0.722" style="stop-color:#02C2A3"/>
	<stop  offset="0.7752" style="stop-color:#04B79F"/>
	<stop  offset="0.8251" style="stop-color:#07A598"/>
	<stop  offset="0.8731" style="stop-color:#0C8C8F"/>
	<stop  offset="0.9196" style="stop-color:#136C84"/>
	<stop  offset="0.9645" style="stop-color:#1B4575"/>
	<stop  offset="1" style="stop-color:#222168"/>
</linearGradient>
<path class="st38" d="M-696.9,1241.9c-19.4,44-77.2,93-123.3,108.7"/>
<linearGradient id="SVGID_35_" gradientUnits="userSpaceOnUse" x1="-808.4744" y1="1012.4004" x2="-695.9135" y2="1012.4004">
	<stop  offset="0" style="stop-color:#0774BE"/>
	<stop  offset="0.1535" style="stop-color:#0682BA"/>
	<stop  offset="0.4404" style="stop-color:#03A5AE"/>
	<stop  offset="0.6601" style="stop-color:#01C5A4"/>
	<stop  offset="0.722" style="stop-color:#02C2A3"/>
	<stop  offset="0.7752" style="stop-color:#04B79F"/>
	<stop  offset="0.8251" style="stop-color:#07A598"/>
	<stop  offset="0.8731" style="stop-color:#0C8C8F"/>
	<stop  offset="0.9196" style="stop-color:#136C84"/>
	<stop  offset="0.9645" style="stop-color:#1B4575"/>
	<stop  offset="1" style="stop-color:#222168"/>
</linearGradient>
<path class="st39" d="M-808.1,957.3c53.2,22,91.5,56.4,111.2,110.7"/>
<linearGradient id="SVGID_36_" gradientUnits="userSpaceOnUse" x1="-917.6312" y1="921.0916" x2="-844.1429" y2="921.0916">
	<stop  offset="0" style="stop-color:#0774BE"/>
	<stop  offset="0.1535" style="stop-color:#0682BA"/>
	<stop  offset="0.4404" style="stop-color:#03A5AE"/>
	<stop  offset="0.6601" style="stop-color:#01C5A4"/>
	<stop  offset="0.722" style="stop-color:#02C2A3"/>
	<stop  offset="0.7752" style="stop-color:#04B79F"/>
	<stop  offset="0.8251" style="stop-color:#07A598"/>
	<stop  offset="0.8731" style="stop-color:#0C8C8F"/>
	<stop  offset="0.9196" style="stop-color:#136C84"/>
	<stop  offset="0.9645" style="stop-color:#1B4575"/>
	<stop  offset="1" style="stop-color:#222168"/>
</linearGradient>
<circle class="st40" cx="-880.9" cy="921.1" r="35.7"/>
<linearGradient id="SVGID_37_" gradientUnits="userSpaceOnUse" x1="-934.8276" y1="985.9365" x2="-826.8973" y2="985.9365">
	<stop  offset="0" style="stop-color:#0774BE"/>
	<stop  offset="0.1535" style="stop-color:#0682BA"/>
	<stop  offset="0.4404" style="stop-color:#03A5AE"/>
	<stop  offset="0.6601" style="stop-color:#01C5A4"/>
	<stop  offset="0.722" style="stop-color:#02C2A3"/>
	<stop  offset="0.7752" style="stop-color:#04B79F"/>
	<stop  offset="0.8251" style="stop-color:#07A598"/>
	<stop  offset="0.8731" style="stop-color:#0C8C8F"/>
	<stop  offset="0.9196" style="stop-color:#136C84"/>
	<stop  offset="0.9645" style="stop-color:#1B4575"/>
	<stop  offset="1" style="stop-color:#222168"/>
</linearGradient>
<path class="st41" d="M-828,1012.6h-105.8c1-48.5,29.9-53.4,29.9-53.4c6.7,4.1,14.6,6.4,23,6.4c8.3,0,16.1-2.3,22.7-6.2
	C-858.2,959.4-830.9,968.5-828,1012.6z"/>
<linearGradient id="SVGID_38_" gradientUnits="userSpaceOnUse" x1="-1114.5464" y1="1125.6844" x2="-1041.0581" y2="1125.6844">
	<stop  offset="0" style="stop-color:#0774BE"/>
	<stop  offset="0.1535" style="stop-color:#0682BA"/>
	<stop  offset="0.4404" style="stop-color:#03A5AE"/>
	<stop  offset="0.6601" style="stop-color:#01C5A4"/>
	<stop  offset="0.722" style="stop-color:#02C2A3"/>
	<stop  offset="0.7752" style="stop-color:#04B79F"/>
	<stop  offset="0.8251" style="stop-color:#07A598"/>
	<stop  offset="0.8731" style="stop-color:#0C8C8F"/>
	<stop  offset="0.9196" style="stop-color:#136C84"/>
	<stop  offset="0.9645" style="stop-color:#1B4575"/>
	<stop  offset="1" style="stop-color:#222168"/>
</linearGradient>
<circle class="st42" cx="-1077.8" cy="1125.7" r="35.7"/>
<linearGradient id="SVGID_39_" gradientUnits="userSpaceOnUse" x1="-1131.7428" y1="1190.5294" x2="-1023.8124" y2="1190.5294">
	<stop  offset="0" style="stop-color:#0774BE"/>
	<stop  offset="0.1535" style="stop-color:#0682BA"/>
	<stop  offset="0.4404" style="stop-color:#03A5AE"/>
	<stop  offset="0.6601" style="stop-color:#01C5A4"/>
	<stop  offset="0.722" style="stop-color:#02C2A3"/>
	<stop  offset="0.7752" style="stop-color:#04B79F"/>
	<stop  offset="0.8251" style="stop-color:#07A598"/>
	<stop  offset="0.8731" style="stop-color:#0C8C8F"/>
	<stop  offset="0.9196" style="stop-color:#136C84"/>
	<stop  offset="0.9645" style="stop-color:#1B4575"/>
	<stop  offset="1" style="stop-color:#222168"/>
</linearGradient>
<path class="st43" d="M-1024.9,1217.2h-105.8c1-48.5,29.9-53.4,29.9-53.4c6.7,4.1,14.6,6.4,23,6.4c8.3,0,16.1-2.3,22.7-6.2
	C-1055.1,1164-1027.8,1173.1-1024.9,1217.2z"/>
<linearGradient id="SVGID_40_" gradientUnits="userSpaceOnUse" x1="-915.6174" y1="1125.6041" x2="-842.1292" y2="1125.6041">
	<stop  offset="0" style="stop-color:#0774BE"/>
	<stop  offset="0.1535" style="stop-color:#0682BA"/>
	<stop  offset="0.4404" style="stop-color:#03A5AE"/>
	<stop  offset="0.6601" style="stop-color:#01C5A4"/>
	<stop  offset="0.722" style="stop-color:#02C2A3"/>
	<stop  offset="0.7752" style="stop-color:#04B79F"/>
	<stop  offset="0.8251" style="stop-color:#07A598"/>
	<stop  offset="0.8731" style="stop-color:#0C8C8F"/>
	<stop  offset="0.9196" style="stop-color:#136C84"/>
	<stop  offset="0.9645" style="stop-color:#1B4575"/>
	<stop  offset="1" style="stop-color:#222168"/>
</linearGradient>
<circle class="st44" cx="-878.9" cy="1125.6" r="35.7"/>
<linearGradient id="SVGID_41_" gradientUnits="userSpaceOnUse" x1="-932.8138" y1="1190.4491" x2="-824.8835" y2="1190.4491">
	<stop  offset="0" style="stop-color:#0774BE"/>
	<stop  offset="0.1535" style="stop-color:#0682BA"/>
	<stop  offset="0.4404" style="stop-color:#03A5AE"/>
	<stop  offset="0.6601" style="stop-color:#01C5A4"/>
	<stop  offset="0.722" style="stop-color:#02C2A3"/>
	<stop  offset="0.7752" style="stop-color:#04B79F"/>
	<stop  offset="0.8251" style="stop-color:#07A598"/>
	<stop  offset="0.8731" style="stop-color:#0C8C8F"/>
	<stop  offset="0.9196" style="stop-color:#136C84"/>
	<stop  offset="0.9645" style="stop-color:#1B4575"/>
	<stop  offset="1" style="stop-color:#222168"/>
</linearGradient>
<path class="st45" d="M-826,1217.2h-105.8c1-48.5,29.9-53.4,29.9-53.4c6.7,4.1,14.6,6.4,23,6.4c8.3,0,16.1-2.3,22.7-6.2
	C-856.1,1163.9-828.9,1173-826,1217.2z"/>
<linearGradient id="SVGID_42_" gradientUnits="userSpaceOnUse" x1="-3043.1975" y1="3453.3125" x2="-1631.7174" y2="3453.3125">
	<stop  offset="0" style="stop-color:#0760C5"/>
	<stop  offset="0.2999" style="stop-color:#085EC2"/>
	<stop  offset="0.4902" style="stop-color:#0A58BA"/>
	<stop  offset="0.6499" style="stop-color:#0F4EAB"/>
	<stop  offset="0.7927" style="stop-color:#154096"/>
	<stop  offset="0.9231" style="stop-color:#1C2E7C"/>
	<stop  offset="1" style="stop-color:#222168"/>
</linearGradient>
<path class="st46" d="M-1631.7,3182.6c-87.9,157.4-450.3,504.7-1411.5,540.4c-1.2,3.1,60.4-3.1,59.3,0h1149
	c81-115.7,154.8-264,203.1-452.8V3182.6z"/>
<linearGradient id="SVGID_43_" gradientUnits="userSpaceOnUse" x1="-2035.0004" y1="3500.314" x2="-1631.7174" y2="3500.314">
	<stop  offset="0.6368" style="stop-color:#0760C5"/>
	<stop  offset="0.8365" style="stop-color:#0386B1"/>
	<stop  offset="1" style="stop-color:#00A89F"/>
</linearGradient>
<path class="st47" d="M-1631.7,3277.5c-68.9,222.1-225.6,360.2-403.3,445.5h275.9c53.2-86.9,98.3-193.6,127.4-324.6V3277.5z"/>
<linearGradient id="SVGID_44_" gradientUnits="userSpaceOnUse" x1="151.4884" y1="197.9342" x2="489.7631" y2="197.9342">
	<stop  offset="0" style="stop-color:#0774BE"/>
	<stop  offset="0.2326" style="stop-color:#0682BA"/>
	<stop  offset="0.6672" style="stop-color:#03A5AE"/>
	<stop  offset="1" style="stop-color:#01C5A4"/>
</linearGradient>
<polyline class="st48" points="174.8,272.3 152.5,272.3 152.5,123.6 488.8,123.6 488.8,272.3 268.4,272.3 "/>
<linearGradient id="SVGID_45_" gradientUnits="userSpaceOnUse" x1="158.7709" y1="197.9342" x2="483.2311" y2="197.9342">
	<stop  offset="0" style="stop-color:#0774BE"/>
	<stop  offset="0.2326" style="stop-color:#0682BA"/>
	<stop  offset="0.6672" style="stop-color:#03A5AE"/>
	<stop  offset="1" style="stop-color:#01C5A4"/>
</linearGradient>
<polyline class="st49" points="176.7,265.5 159.8,265.5 159.8,130.4 482.2,130.4 482.2,265.5 266,265.5 "/>
<linearGradient id="SVGID_46_" gradientUnits="userSpaceOnUse" x1="187.7524" y1="204.9235" x2="256.479" y2="204.9235">
	<stop  offset="0" style="stop-color:#0774BE"/>
	<stop  offset="0.2326" style="stop-color:#0682BA"/>
	<stop  offset="0.6672" style="stop-color:#03A5AE"/>
	<stop  offset="1" style="stop-color:#01C5A4"/>
</linearGradient>
<circle class="st50" cx="222.1" cy="204.9" r="33.4"/>
<linearGradient id="SVGID_47_" gradientUnits="userSpaceOnUse" x1="171.7001" y1="265.4477" x2="272.5806" y2="265.4477">
	<stop  offset="0" style="stop-color:#0774BE"/>
	<stop  offset="0.2326" style="stop-color:#0682BA"/>
	<stop  offset="0.6672" style="stop-color:#03A5AE"/>
	<stop  offset="1" style="stop-color:#01C5A4"/>
</linearGradient>
<path class="st51" d="M271.5,290.4h-98.8c0.9-45.3,27.9-49.8,27.9-49.8c6.3,3.8,13.6,6,21.5,6c7.8,0,15-2.1,21.2-5.8
	C243.3,240.7,268.7,249.1,271.5,290.4z"/>
<linearGradient id="SVGID_48_" gradientUnits="userSpaceOnUse" x1="307.0878" y1="171.8844" x2="324.5278" y2="171.8844">
	<stop  offset="0" style="stop-color:#0774BE"/>
	<stop  offset="0.2326" style="stop-color:#0682BA"/>
	<stop  offset="0.6672" style="stop-color:#03A5AE"/>
	<stop  offset="1" style="stop-color:#01C5A4"/>
</linearGradient>
<circle class="st52" cx="315.8" cy="171.9" r="7.7"/>
<linearGradient id="SVGID_49_" gradientUnits="userSpaceOnUse" x1="424.0556" y1="218.4809" x2="441.4957" y2="218.4809">
	<stop  offset="0" style="stop-color:#0774BE"/>
	<stop  offset="0.2326" style="stop-color:#0682BA"/>
	<stop  offset="0.6672" style="stop-color:#03A5AE"/>
	<stop  offset="1" style="stop-color:#01C5A4"/>
</linearGradient>
<circle class="st53" cx="432.8" cy="218.5" r="7.7"/>
<linearGradient id="SVGID_50_" gradientUnits="userSpaceOnUse" x1="416.3356" y1="192.1661" x2="433.7757" y2="192.1661">
	<stop  offset="0" style="stop-color:#0774BE"/>
	<stop  offset="0.2326" style="stop-color:#0682BA"/>
	<stop  offset="0.6672" style="stop-color:#03A5AE"/>
	<stop  offset="1" style="stop-color:#01C5A4"/>
</linearGradient>
<circle class="st54" cx="425.1" cy="192.2" r="7.7"/>
<linearGradient id="SVGID_51_" gradientUnits="userSpaceOnUse" x1="400.8956" y1="230.5667" x2="418.3356" y2="230.5667">
	<stop  offset="0" style="stop-color:#0774BE"/>
	<stop  offset="0.2326" style="stop-color:#0682BA"/>
	<stop  offset="0.6672" style="stop-color:#03A5AE"/>
	<stop  offset="1" style="stop-color:#01C5A4"/>
</linearGradient>
<circle class="st55" cx="409.6" cy="230.6" r="7.7"/>
<linearGradient id="SVGID_52_" gradientUnits="userSpaceOnUse" x1="385.4555" y1="204.9235" x2="402.8956" y2="204.9235">
	<stop  offset="0" style="stop-color:#0774BE"/>
	<stop  offset="0.2326" style="stop-color:#0682BA"/>
	<stop  offset="0.6672" style="stop-color:#03A5AE"/>
	<stop  offset="1" style="stop-color:#01C5A4"/>
</linearGradient>
<circle class="st56" cx="394.2" cy="204.9" r="7.7"/>
<linearGradient id="SVGID_53_" gradientUnits="userSpaceOnUse" x1="366.5421" y1="238.2868" x2="383.9822" y2="238.2868">
	<stop  offset="0" style="stop-color:#0774BE"/>
	<stop  offset="0.2326" style="stop-color:#0682BA"/>
	<stop  offset="0.6672" style="stop-color:#03A5AE"/>
	<stop  offset="1" style="stop-color:#01C5A4"/>
</linearGradient>
<circle class="st57" cx="375.3" cy="238.3" r="7.7"/>
<linearGradient id="SVGID_54_" gradientUnits="userSpaceOnUse" x1="358.8221" y1="212.6435" x2="376.2622" y2="212.6435">
	<stop  offset="0" style="stop-color:#0774BE"/>
	<stop  offset="0.2326" style="stop-color:#0682BA"/>
	<stop  offset="0.6672" style="stop-color:#03A5AE"/>
	<stop  offset="1" style="stop-color:#01C5A4"/>
</linearGradient>
<circle class="st58" cx="367.5" cy="212.6" r="7.7"/>
<linearGradient id="SVGID_55_" gradientUnits="userSpaceOnUse" x1="332.1887" y1="226.2009" x2="349.6288" y2="226.2009">
	<stop  offset="0" style="stop-color:#0774BE"/>
	<stop  offset="0.2326" style="stop-color:#0682BA"/>
	<stop  offset="0.6672" style="stop-color:#03A5AE"/>
	<stop  offset="1" style="stop-color:#01C5A4"/>
</linearGradient>
<circle class="st59" cx="340.9" cy="226.2" r="7.7"/>
<linearGradient id="SVGID_56_" gradientUnits="userSpaceOnUse" x1="336.9933" y1="175.7444" x2="402.0139" y2="175.7444">
	<stop  offset="0" style="stop-color:#0774BE"/>
	<stop  offset="0.2326" style="stop-color:#0682BA"/>
	<stop  offset="0.6672" style="stop-color:#03A5AE"/>
	<stop  offset="1" style="stop-color:#01C5A4"/>
</linearGradient>
<line class="st60" x1="337.1" y1="171.9" x2="401.9" y2="179.6"/>
<linearGradient id="SVGID_57_" gradientUnits="userSpaceOnUse" x1="320.1199" y1="199.4057" x2="334.0699" y2="199.4057">
	<stop  offset="0" style="stop-color:#0774BE"/>
	<stop  offset="0.2326" style="stop-color:#0682BA"/>
	<stop  offset="0.6672" style="stop-color:#03A5AE"/>
	<stop  offset="1" style="stop-color:#01C5A4"/>
</linearGradient>
<line class="st61" x1="321" y1="188.1" x2="333.2" y2="210.8"/>
<linearGradient id="SVGID_58_" gradientUnits="userSpaceOnUse" x1="332.9103" y1="188.3061" x2="360.1005" y2="188.3061">
	<stop  offset="0" style="stop-color:#0774BE"/>
	<stop  offset="0.2326" style="stop-color:#0682BA"/>
	<stop  offset="0.6672" style="stop-color:#03A5AE"/>
	<stop  offset="1" style="stop-color:#01C5A4"/>
</linearGradient>
<line class="st62" x1="333.2" y1="184.4" x2="359.8" y2="192.2"/>
<linearGradient id="SVGID_59_" gradientUnits="userSpaceOnUse" x1="86.7121" y1="361.5595" x2="155.4387" y2="361.5595">
	<stop  offset="0" style="stop-color:#0774BE"/>
	<stop  offset="0.2326" style="stop-color:#0682BA"/>
	<stop  offset="0.6672" style="stop-color:#03A5AE"/>
	<stop  offset="1" style="stop-color:#01C5A4"/>
</linearGradient>
<circle class="st63" cx="121.1" cy="361.6" r="33.4"/>
<linearGradient id="SVGID_60_" gradientUnits="userSpaceOnUse" x1="70.6598" y1="422.0837" x2="171.5403" y2="422.0837">
	<stop  offset="0" style="stop-color:#0774BE"/>
	<stop  offset="0.2326" style="stop-color:#0682BA"/>
	<stop  offset="0.6672" style="stop-color:#03A5AE"/>
	<stop  offset="1" style="stop-color:#01C5A4"/>
</linearGradient>
<path class="st64" d="M87.9,447H71.7c0.9-45.3,27.9-49.8,27.9-49.8c6.3,3.8,13.6,6,21.5,6c7.8,0,15-2.1,21.2-5.8
	c0,0,25.4,8.4,28.2,49.7h-16.2"/>
<linearGradient id="SVGID_61_" gradientUnits="userSpaceOnUse" x1="213.9066" y1="361.5595" x2="282.6332" y2="361.5595">
	<stop  offset="0" style="stop-color:#0774BE"/>
	<stop  offset="0.2326" style="stop-color:#0682BA"/>
	<stop  offset="0.6672" style="stop-color:#03A5AE"/>
	<stop  offset="1" style="stop-color:#01C5A4"/>
</linearGradient>
<circle class="st65" cx="248.3" cy="361.6" r="33.4"/>
<linearGradient id="SVGID_62_" gradientUnits="userSpaceOnUse" x1="197.8543" y1="422.0837" x2="298.7348" y2="422.0837">
	<stop  offset="0" style="stop-color:#0774BE"/>
	<stop  offset="0.2326" style="stop-color:#0682BA"/>
	<stop  offset="0.6672" style="stop-color:#03A5AE"/>
	<stop  offset="1" style="stop-color:#01C5A4"/>
</linearGradient>
<path class="st66" d="M215.1,447h-16.2c0.9-45.3,27.9-49.8,27.9-49.8c6.3,3.8,13.6,6,21.5,6c7.8,0,15-2.1,21.2-5.8
	c0,0,25.4,8.4,28.2,49.7h-16.2"/>
<linearGradient id="SVGID_63_" gradientUnits="userSpaceOnUse" x1="355.9409" y1="361.5595" x2="424.6675" y2="361.5595">
	<stop  offset="0" style="stop-color:#0774BE"/>
	<stop  offset="0.2326" style="stop-color:#0682BA"/>
	<stop  offset="0.6672" style="stop-color:#03A5AE"/>
	<stop  offset="1" style="stop-color:#01C5A4"/>
</linearGradient>
<circle class="st67" cx="390.3" cy="361.6" r="33.4"/>
<linearGradient id="SVGID_64_" gradientUnits="userSpaceOnUse" x1="339.8886" y1="422.0837" x2="440.7691" y2="422.0837">
	<stop  offset="0" style="stop-color:#0774BE"/>
	<stop  offset="0.2326" style="stop-color:#0682BA"/>
	<stop  offset="0.6672" style="stop-color:#03A5AE"/>
	<stop  offset="1" style="stop-color:#01C5A4"/>
</linearGradient>
<path class="st68" d="M356.9,447h-16c0.9-45.3,27.9-49.8,27.9-49.8c6.3,3.8,13.6,6,21.5,6c7.8,0,15-2.1,21.2-5.8
	c0,0,25.4,8.4,28.2,49.7h-16"/>
<linearGradient id="SVGID_65_" gradientUnits="userSpaceOnUse" x1="483.1354" y1="361.5595" x2="551.8621" y2="361.5595">
	<stop  offset="0" style="stop-color:#0774BE"/>
	<stop  offset="0.2326" style="stop-color:#0682BA"/>
	<stop  offset="0.6672" style="stop-color:#03A5AE"/>
	<stop  offset="1" style="stop-color:#01C5A4"/>
</linearGradient>
<circle class="st69" cx="517.5" cy="361.6" r="33.4"/>
<linearGradient id="SVGID_66_" gradientUnits="userSpaceOnUse" x1="467.0831" y1="422.0837" x2="567.9636" y2="422.0837">
	<stop  offset="0" style="stop-color:#0774BE"/>
	<stop  offset="0.2326" style="stop-color:#0682BA"/>
	<stop  offset="0.6672" style="stop-color:#03A5AE"/>
	<stop  offset="1" style="stop-color:#01C5A4"/>
</linearGradient>
<path class="st70" d="M484.1,447h-16c0.9-45.3,27.9-49.8,27.9-49.8c6.3,3.8,13.6,6,21.5,6c7.8,0,15-2.1,21.2-5.8
	c0,0,25.4,8.4,28.2,49.7h-16.2"/>
<linearGradient id="SVGID_67_" gradientUnits="userSpaceOnUse" x1="86.7121" y1="450.5595" x2="155.4387" y2="450.5595">
	<stop  offset="0" style="stop-color:#0774BE"/>
	<stop  offset="0.2326" style="stop-color:#0682BA"/>
	<stop  offset="0.6672" style="stop-color:#03A5AE"/>
	<stop  offset="1" style="stop-color:#01C5A4"/>
</linearGradient>
<circle class="st71" cx="121.1" cy="450.6" r="33.4"/>
<linearGradient id="SVGID_68_" gradientUnits="userSpaceOnUse" x1="70.6598" y1="511.0837" x2="171.5403" y2="511.0837">
	<stop  offset="0" style="stop-color:#0774BE"/>
	<stop  offset="0.2326" style="stop-color:#0682BA"/>
	<stop  offset="0.6672" style="stop-color:#03A5AE"/>
	<stop  offset="1" style="stop-color:#01C5A4"/>
</linearGradient>
<path class="st72" d="M170.5,536H71.7c0.9-45.3,27.9-49.8,27.9-49.8c6.3,3.8,13.6,6,21.5,6c7.8,0,15-2.1,21.2-5.8
	C142.3,486.4,167.7,494.8,170.5,536z"/>
<linearGradient id="SVGID_69_" gradientUnits="userSpaceOnUse" x1="213.9066" y1="450.5595" x2="282.6332" y2="450.5595">
	<stop  offset="0" style="stop-color:#0774BE"/>
	<stop  offset="0.2326" style="stop-color:#0682BA"/>
	<stop  offset="0.6672" style="stop-color:#03A5AE"/>
	<stop  offset="1" style="stop-color:#01C5A4"/>
</linearGradient>
<circle class="st73" cx="248.3" cy="450.6" r="33.4"/>
<linearGradient id="SVGID_70_" gradientUnits="userSpaceOnUse" x1="197.8543" y1="511.0837" x2="298.7348" y2="511.0837">
	<stop  offset="0" style="stop-color:#0774BE"/>
	<stop  offset="0.2326" style="stop-color:#0682BA"/>
	<stop  offset="0.6672" style="stop-color:#03A5AE"/>
	<stop  offset="1" style="stop-color:#01C5A4"/>
</linearGradient>
<path class="st74" d="M297.7,536h-98.8c0.9-45.3,27.9-49.8,27.9-49.8c6.3,3.8,13.6,6,21.5,6c7.8,0,15-2.1,21.2-5.8
	C269.5,486.4,294.9,494.8,297.7,536z"/>
<linearGradient id="SVGID_71_" gradientUnits="userSpaceOnUse" x1="355.9409" y1="450.5595" x2="424.6675" y2="450.5595">
	<stop  offset="0" style="stop-color:#0774BE"/>
	<stop  offset="0.2326" style="stop-color:#0682BA"/>
	<stop  offset="0.6672" style="stop-color:#03A5AE"/>
	<stop  offset="1" style="stop-color:#01C5A4"/>
</linearGradient>
<circle class="st75" cx="390.3" cy="450.6" r="33.4"/>
<linearGradient id="SVGID_72_" gradientUnits="userSpaceOnUse" x1="339.8886" y1="511.0837" x2="440.7691" y2="511.0837">
	<stop  offset="0" style="stop-color:#0774BE"/>
	<stop  offset="0.2326" style="stop-color:#0682BA"/>
	<stop  offset="0.6672" style="stop-color:#03A5AE"/>
	<stop  offset="1" style="stop-color:#01C5A4"/>
</linearGradient>
<path class="st76" d="M439.7,536h-98.8c0.9-45.3,27.9-49.8,27.9-49.8c6.3,3.8,13.6,6,21.5,6c7.8,0,15-2.1,21.2-5.8
	C411.5,486.4,436.9,494.8,439.7,536z"/>
<linearGradient id="SVGID_73_" gradientUnits="userSpaceOnUse" x1="483.1354" y1="450.5595" x2="551.8621" y2="450.5595">
	<stop  offset="0" style="stop-color:#0774BE"/>
	<stop  offset="0.2326" style="stop-color:#0682BA"/>
	<stop  offset="0.6672" style="stop-color:#03A5AE"/>
	<stop  offset="1" style="stop-color:#01C5A4"/>
</linearGradient>
<circle class="st77" cx="517.5" cy="450.6" r="33.4"/>
<linearGradient id="SVGID_74_" gradientUnits="userSpaceOnUse" x1="467.0831" y1="511.0837" x2="567.9636" y2="511.0837">
	<stop  offset="0" style="stop-color:#0774BE"/>
	<stop  offset="0.2326" style="stop-color:#0682BA"/>
	<stop  offset="0.6672" style="stop-color:#03A5AE"/>
	<stop  offset="1" style="stop-color:#01C5A4"/>
</linearGradient>
<path class="st78" d="M566.9,536h-98.8c0.9-45.3,27.9-49.8,27.9-49.8c6.3,3.8,13.6,6,21.5,6c7.8,0,15-2.1,21.2-5.8
	C538.7,486.4,564.1,494.8,566.9,536z"/>
</svg>
